<svg width="1320" height="360" viewBox="0 0 1320 360" fill="none" xmlns="http://www.w3.org/2000/svg">
  <defs>
    <linearGradient id="panel" x1="42" y1="30" x2="322" y2="310" gradientUnits="userSpaceOnUse">
      <stop stop-color="#10244A"/>
      <stop offset="1" stop-color="#0A1531"/>
    </linearGradient>
    <linearGradient id="panel-stroke" x1="58" y1="42" x2="300" y2="298" gradientUnits="userSpaceOnUse">
      <stop stop-color="#365E9D" stop-opacity="0.85"/>
      <stop offset="0.45" stop-color="#1D3568" stop-opacity="0.78"/>
      <stop offset="1" stop-color="#6EE6FF" stop-opacity="0.34"/>
    </linearGradient>
    <linearGradient id="panel-highlight" x1="78" y1="54" x2="264" y2="198" gradientUnits="userSpaceOnUse">
      <stop stop-color="#D7F7FF" stop-opacity="0.22"/>
      <stop offset="0.55" stop-color="#79E9FF" stop-opacity="0.07"/>
      <stop offset="1" stop-color="#79E9FF" stop-opacity="0"/>
    </linearGradient>
    <radialGradient id="glow" cx="0" cy="0" r="1" gradientUnits="userSpaceOnUse" gradientTransform="translate(182 152) rotate(90) scale(128)">
      <stop stop-color="#8BF6FF" stop-opacity="0.50"/>
      <stop offset="1" stop-color="#8BF6FF" stop-opacity="0"/>
    </radialGradient>
    <radialGradient id="plugin-node-glow" cx="0" cy="0" r="1" gradientUnits="userSpaceOnUse" gradientTransform="translate(248 109) rotate(90) scale(32)">
      <stop stop-color="#FF9B74" stop-opacity="0.65"/>
      <stop offset="1" stop-color="#FF9B74" stop-opacity="0"/>
    </radialGradient>
    <linearGradient id="rail" x1="96" y1="116" x2="262" y2="236" gradientUnits="userSpaceOnUse">
      <stop stop-color="#7FE2FF"/>
      <stop offset="1" stop-color="#62C6F1"/>
    </linearGradient>
    <linearGradient id="wing" x1="138" y1="112" x2="236" y2="222" gradientUnits="userSpaceOnUse">
      <stop stop-color="#8BEFF5"/>
      <stop offset="1" stop-color="#4CD3EC"/>
    </linearGradient>
    <linearGradient id="body" x1="188" y1="150" x2="254" y2="262" gradientUnits="userSpaceOnUse">
      <stop stop-color="#FFE7A0"/>
      <stop offset="1" stop-color="#FFB54B"/>
    </linearGradient>
    <linearGradient id="word" x1="370" y1="56" x2="988" y2="236" gradientUnits="userSpaceOnUse">
      <stop stop-color="#DDF8FF"/>
      <stop offset="0.45" stop-color="#8BE9FF"/>
      <stop offset="1" stop-color="#4FD3F5"/>
    </linearGradient>
    <linearGradient id="tagline" x1="374" y1="132" x2="928" y2="194" gradientUnits="userSpaceOnUse">
      <stop stop-color="#B8DFFF"/>
      <stop offset="1" stop-color="#86BFFF"/>
    </linearGradient>
    <filter id="panel-shadow" x="24" y="18" width="316" height="316" filterUnits="userSpaceOnUse" color-interpolation-filters="sRGB">
      <feFlood flood-opacity="0" result="BackgroundImageFix"/>
      <feColorMatrix in="SourceAlpha" type="matrix" values="0 0 0 0 0 0 0 0 0 0 0 0 0 0 0 0 0 0 127 0" result="hardAlpha"/>
      <feOffset dy="8"/>
      <feGaussianBlur stdDeviation="9"/>
      <feColorMatrix type="matrix" values="0 0 0 0 0.02 0 0 0 0 0.05 0 0 0 0 0.12 0 0 0 0.30 0"/>
      <feBlend mode="normal" in2="BackgroundImageFix" result="effect1_dropShadow_1_1"/>
      <feBlend mode="normal" in="SourceGraphic" in2="effect1_dropShadow_1_1" result="shape"/>
    </filter>
    <filter id="word-shadow" x="356" y="42" width="650" height="168" filterUnits="userSpaceOnUse" color-interpolation-filters="sRGB">
      <feFlood flood-opacity="0" result="BackgroundImageFix"/>
      <feColorMatrix in="SourceAlpha" type="matrix" values="0 0 0 0 0 0 0 0 0 0 0 0 0 0 0 0 0 0 127 0" result="hardAlpha"/>
      <feOffset dy="4"/>
      <feGaussianBlur stdDeviation="4"/>
      <feColorMatrix type="matrix" values="0 0 0 0 0.02 0 0 0 0 0.08 0 0 0 0 0.18 0 0 0 0.28 0"/>
      <feBlend mode="normal" in2="BackgroundImageFix" result="effect1_dropShadow_1_1"/>
      <feBlend mode="normal" in="SourceGraphic" in2="effect1_dropShadow_1_1" result="shape"/>
    </filter>
    <clipPath id="panel-clip">
      <rect x="42" y="30" width="280" height="280" rx="78"/>
    </clipPath>
  </defs>

  <g filter="url(#panel-shadow)">
    <rect x="42" y="30" width="280" height="280" rx="78" fill="url(#panel)"/>
    <rect x="43.5" y="31.5" width="277" height="277" rx="76.5" stroke="url(#panel-stroke)" stroke-width="3"/>
    <path d="M80 58C122 42 182 40 236 52C266 58 290 72 304 92" stroke="url(#panel-highlight)" stroke-width="10" stroke-linecap="round"/>
  </g>
  <g clip-path="url(#panel-clip)">
    <circle cx="175.75" cy="152.5" r="117.5" fill="url(#glow)"/>

    <path d="M102 118.75V221.25H127" stroke="url(#rail)" stroke-width="16" stroke-linecap="round" stroke-linejoin="round"/>
    <path d="M262 118.75V221.25H237" stroke="url(#rail)" stroke-width="16" stroke-linecap="round" stroke-linejoin="round"/>

    <path d="M137 166.25C155.75 120 194.5 102.5 234.5 111.25C204.5 138.75 184.5 156.25 162 192.5L137 166.25Z" fill="url(#wing)"/>
    <path d="M195.75 140C209.5 148.75 217 165 217 183.75C217 211.25 198.25 231.25 174.5 237.5C178.25 218.75 175.75 206.25 163.25 188.75L195.75 140Z" fill="url(#body)"/>
    <path d="M210.75 141.25L244.5 123.75L223.25 151.25L210.75 141.25Z" fill="#C8F6FF"/>
    <circle cx="200.75" cy="163.75" r="4.8" fill="#0F1A37"/>
    <path d="M163.25 186.25C172 198.75 177 213.75 175.75 227.5C187 223.125 197.625 217.5 205.75 208.75C216.375 198.125 222.625 184.375 224.5 168.75" fill="url(#body)"/>
    <path d="M142 212.5C157 221.25 174.5 226.25 192 226.25" stroke="#47D9F6" stroke-width="12" stroke-linecap="round"/>

    <circle cx="212" cy="86.25" r="8.75" fill="#FFF0B8"/>
    <circle cx="225.75" cy="95" r="5.625" fill="#FFF0B8"/>
    <circle cx="248" cy="109" r="20" fill="url(#plugin-node-glow)"/>
    <circle cx="248" cy="109" r="6.5" fill="#FF8E6B"/>
    <circle cx="248" cy="109" r="2.25" fill="#FFF4E6"/>
  </g>

  <g transform="translate(370 74)">
    <g filter="url(#word-shadow)">
      <text x="0" y="106" fill="url(#word)" font-family="'Sora', 'Space Grotesk', sans-serif" font-size="116" font-weight="760" letter-spacing="-2">
        humming
      </text>
    </g>
    <text x="4" y="160" fill="url(#tagline)" font-family="'IBM Plex Sans', 'Noto Sans', sans-serif" font-size="33" font-weight="520" letter-spacing="0.2">
      plugin-first lightweight BFF kernel
    </text>
  </g>
</svg>
