<svg width="512" height="512" viewBox="0 0 512 512" fill="none" xmlns="http://www.w3.org/2000/svg">
  <defs>
    <linearGradient id="panel" x1="32" y1="32" x2="480" y2="480" gradientUnits="userSpaceOnUse">
      <stop stop-color="#10244A"/>
      <stop offset="1" stop-color="#0A1531"/>
    </linearGradient>
    <radialGradient id="glow" cx="0" cy="0" r="1" gradientUnits="userSpaceOnUse" gradientTransform="translate(246 228) rotate(90) scale(188)">
      <stop stop-color="#8BF6FF" stop-opacity="0.52"/>
      <stop offset="1" stop-color="#8BF6FF" stop-opacity="0"/>
    </radialGradient>
    <linearGradient id="rail" x1="128" y1="174" x2="384" y2="338" gradientUnits="userSpaceOnUse">
      <stop stop-color="#7FE2FF"/>
      <stop offset="1" stop-color="#62C6F1"/>
    </linearGradient>
    <linearGradient id="wing" x1="184" y1="164" x2="316" y2="304" gradientUnits="userSpaceOnUse">
      <stop stop-color="#8BEFF5"/>
      <stop offset="1" stop-color="#4CD3EC"/>
    </linearGradient>
    <linearGradient id="body" x1="234" y1="208" x2="324" y2="352" gradientUnits="userSpaceOnUse">
      <stop stop-color="#FFE7A0"/>
      <stop offset="1" stop-color="#FFB54B"/>
    </linearGradient>
    <filter id="panel-shadow" x="10" y="12" width="492" height="492" filterUnits="userSpaceOnUse" color-interpolation-filters="sRGB">
      <feFlood flood-opacity="0" result="BackgroundImageFix"/>
      <feColorMatrix in="SourceAlpha" type="matrix" values="0 0 0 0 0 0 0 0 0 0 0 0 0 0 0 0 0 0 127 0" result="hardAlpha"/>
      <feOffset dy="14"/>
      <feGaussianBlur stdDeviation="11"/>
      <feColorMatrix type="matrix" values="0 0 0 0 0.02 0 0 0 0 0.05 0 0 0 0 0.12 0 0 0 0.34 0"/>
      <feBlend mode="normal" in2="BackgroundImageFix" result="effect1_dropShadow_1_1"/>
      <feBlend mode="normal" in="SourceGraphic" in2="effect1_dropShadow_1_1" result="shape"/>
    </filter>
    <clipPath id="panel-clip">
      <rect x="32" y="32" width="448" height="448" rx="112"/>
    </clipPath>
  </defs>

  <g filter="url(#panel-shadow)">
    <rect x="32" y="32" width="448" height="448" rx="112" fill="url(#panel)"/>
    <rect x="34" y="34" width="444" height="444" rx="110" stroke="#173463" stroke-width="4"/>
  </g>
  <g clip-path="url(#panel-clip)">
    <circle cx="246" cy="228" r="188" fill="url(#glow)"/>

    <path d="M128 174V338H168" stroke="url(#rail)" stroke-width="26" stroke-linecap="round" stroke-linejoin="round"/>
    <path d="M384 174V338H344" stroke="url(#rail)" stroke-width="26" stroke-linecap="round" stroke-linejoin="round"/>

    <path d="M184 250C214 176 276 148 340 162C292 206 260 234 224 292L184 250Z" fill="url(#wing)"/>
    <path d="M278 208C300 222 312 248 312 278C312 322 282 354 244 364C250 334 246 314 226 286L278 208Z" fill="url(#body)"/>
    <path d="M302 210L356 182L322 226L302 210Z" fill="#C8F6FF"/>
    <circle cx="286" cy="246" r="7" fill="#0F1A37"/>
    <path d="M226 282C240 302 248 326 246 348C264 341 281 332 294 318C311 301 321 279 324 254" fill="url(#body)"/>
    <path d="M192 324C218 338 244 346 272 346" stroke="#47D9F6" stroke-width="14" stroke-linecap="round"/>

    <circle cx="304" cy="122" r="14" fill="#FFF0B8"/>
    <circle cx="326" cy="136" r="9" fill="#FFF0B8"/>
  </g>
</svg>
